<mxfile host="app.diagrams.net" modified="2022-01-05T05:48:04.153Z" agent="5.0 (Windows NT 10.0; Win64; x64) AppleWebKit/537.36 (KHTML, like Gecko) Chrome/96.0.4664.110 Safari/537.36" etag="DF0uhBTjb4iNTjeMh9Oj" version="16.1.4" type="github">
  <diagram id="WwTaBYsYjVprVoLZ9nzU" name="Page-1">
    <mxGraphModel dx="475" dy="450" grid="1" gridSize="10" guides="1" tooltips="1" connect="1" arrows="1" fold="1" page="1" pageScale="1" pageWidth="850" pageHeight="1100" math="0" shadow="0">
      <root>
        <mxCell id="0" />
        <mxCell id="1" parent="0" />
        <mxCell id="gJO6tKAzrJcMqkcw1Agy-1" value="USER" style="rounded=0;whiteSpace=wrap;html=1;" vertex="1" parent="1">
          <mxGeometry x="140" y="200" width="120" height="60" as="geometry" />
        </mxCell>
        <mxCell id="gJO6tKAzrJcMqkcw1Agy-2" value="CONTACT" style="rounded=0;whiteSpace=wrap;html=1;" vertex="1" parent="1">
          <mxGeometry x="540" y="200" width="120" height="60" as="geometry" />
        </mxCell>
        <mxCell id="gJO6tKAzrJcMqkcw1Agy-3" value="&lt;u&gt;id&lt;/u&gt;" style="ellipse;whiteSpace=wrap;html=1;" vertex="1" parent="1">
          <mxGeometry x="10" y="120" width="80" height="50" as="geometry" />
        </mxCell>
        <mxCell id="gJO6tKAzrJcMqkcw1Agy-4" value="Name" style="ellipse;whiteSpace=wrap;html=1;" vertex="1" parent="1">
          <mxGeometry x="100" y="80" width="80" height="50" as="geometry" />
        </mxCell>
        <mxCell id="gJO6tKAzrJcMqkcw1Agy-5" value="Email" style="ellipse;whiteSpace=wrap;html=1;" vertex="1" parent="1">
          <mxGeometry x="190" y="60" width="80" height="50" as="geometry" />
        </mxCell>
        <mxCell id="gJO6tKAzrJcMqkcw1Agy-6" value="Password" style="ellipse;whiteSpace=wrap;html=1;" vertex="1" parent="1">
          <mxGeometry x="260" y="110" width="70" height="40" as="geometry" />
        </mxCell>
        <mxCell id="gJO6tKAzrJcMqkcw1Agy-7" value="Image" style="ellipse;whiteSpace=wrap;html=1;" vertex="1" parent="1">
          <mxGeometry x="290" y="160" width="70" height="40" as="geometry" />
        </mxCell>
        <mxCell id="gJO6tKAzrJcMqkcw1Agy-8" value="role" style="ellipse;whiteSpace=wrap;html=1;" vertex="1" parent="1">
          <mxGeometry x="10" y="190" width="80" height="50" as="geometry" />
        </mxCell>
        <mxCell id="gJO6tKAzrJcMqkcw1Agy-9" value="enabled" style="ellipse;whiteSpace=wrap;html=1;" vertex="1" parent="1">
          <mxGeometry x="20" y="280" width="80" height="50" as="geometry" />
        </mxCell>
        <mxCell id="gJO6tKAzrJcMqkcw1Agy-10" value="" style="endArrow=none;html=1;rounded=0;exitX=0.338;exitY=0.993;exitDx=0;exitDy=0;exitPerimeter=0;entryX=0.704;entryY=1.02;entryDx=0;entryDy=0;entryPerimeter=0;" edge="1" parent="1" source="gJO6tKAzrJcMqkcw1Agy-5" target="gJO6tKAzrJcMqkcw1Agy-4">
          <mxGeometry width="50" height="50" relative="1" as="geometry">
            <mxPoint x="150" y="260" as="sourcePoint" />
            <mxPoint x="200" y="210" as="targetPoint" />
            <Array as="points">
              <mxPoint x="160" y="200" />
            </Array>
          </mxGeometry>
        </mxCell>
        <mxCell id="gJO6tKAzrJcMqkcw1Agy-11" value="" style="endArrow=none;html=1;rounded=0;entryX=0.603;entryY=-0.05;entryDx=0;entryDy=0;exitX=0;exitY=0.5;exitDx=0;exitDy=0;entryPerimeter=0;" edge="1" parent="1" source="gJO6tKAzrJcMqkcw1Agy-7" target="gJO6tKAzrJcMqkcw1Agy-1">
          <mxGeometry width="50" height="50" relative="1" as="geometry">
            <mxPoint x="150" y="260" as="sourcePoint" />
            <mxPoint x="200" y="210" as="targetPoint" />
          </mxGeometry>
        </mxCell>
        <mxCell id="gJO6tKAzrJcMqkcw1Agy-12" value="" style="endArrow=none;html=1;rounded=0;exitX=0;exitY=0.75;exitDx=0;exitDy=0;exitPerimeter=0;" edge="1" parent="1" source="gJO6tKAzrJcMqkcw1Agy-6" target="gJO6tKAzrJcMqkcw1Agy-1">
          <mxGeometry width="50" height="50" relative="1" as="geometry">
            <mxPoint x="150" y="260" as="sourcePoint" />
            <mxPoint x="200" y="210" as="targetPoint" />
            <Array as="points">
              <mxPoint x="200" y="200" />
              <mxPoint x="150" y="200" />
              <mxPoint x="80" y="160" />
            </Array>
          </mxGeometry>
        </mxCell>
        <mxCell id="gJO6tKAzrJcMqkcw1Agy-13" value="" style="endArrow=none;html=1;rounded=0;entryX=1;entryY=0.5;entryDx=0;entryDy=0;exitX=1;exitY=0.5;exitDx=0;exitDy=0;" edge="1" parent="1" source="gJO6tKAzrJcMqkcw1Agy-9" target="gJO6tKAzrJcMqkcw1Agy-8">
          <mxGeometry width="50" height="50" relative="1" as="geometry">
            <mxPoint x="150" y="260" as="sourcePoint" />
            <mxPoint x="200" y="210" as="targetPoint" />
            <Array as="points">
              <mxPoint x="140" y="230" />
            </Array>
          </mxGeometry>
        </mxCell>
        <mxCell id="gJO6tKAzrJcMqkcw1Agy-14" value="cid" style="ellipse;whiteSpace=wrap;html=1;" vertex="1" parent="1">
          <mxGeometry x="420" y="100" width="90" height="60" as="geometry" />
        </mxCell>
        <mxCell id="gJO6tKAzrJcMqkcw1Agy-15" value="Name" style="ellipse;whiteSpace=wrap;html=1;" vertex="1" parent="1">
          <mxGeometry x="530" y="70" width="80" height="60" as="geometry" />
        </mxCell>
        <mxCell id="gJO6tKAzrJcMqkcw1Agy-16" value="nickName" style="ellipse;whiteSpace=wrap;html=1;" vertex="1" parent="1">
          <mxGeometry x="630" y="90" width="80" height="50" as="geometry" />
        </mxCell>
        <mxCell id="gJO6tKAzrJcMqkcw1Agy-17" value="work" style="ellipse;whiteSpace=wrap;html=1;" vertex="1" parent="1">
          <mxGeometry x="700" y="160" width="70" height="50" as="geometry" />
        </mxCell>
        <mxCell id="gJO6tKAzrJcMqkcw1Agy-18" value="email" style="ellipse;whiteSpace=wrap;html=1;" vertex="1" parent="1">
          <mxGeometry x="685" y="250" width="85" height="60" as="geometry" />
        </mxCell>
        <mxCell id="gJO6tKAzrJcMqkcw1Agy-19" value="image" style="ellipse;whiteSpace=wrap;html=1;" vertex="1" parent="1">
          <mxGeometry x="590" y="280" width="80" height="60" as="geometry" />
        </mxCell>
        <mxCell id="gJO6tKAzrJcMqkcw1Agy-20" value="description" style="ellipse;whiteSpace=wrap;html=1;" vertex="1" parent="1">
          <mxGeometry x="410" y="190" width="100" height="60" as="geometry" />
        </mxCell>
        <mxCell id="gJO6tKAzrJcMqkcw1Agy-21" value="Phone" style="ellipse;whiteSpace=wrap;html=1;" vertex="1" parent="1">
          <mxGeometry x="420" y="290" width="90" height="50" as="geometry" />
        </mxCell>
        <mxCell id="gJO6tKAzrJcMqkcw1Agy-22" value="" style="endArrow=none;html=1;rounded=0;entryX=0.662;entryY=0.983;entryDx=0;entryDy=0;entryPerimeter=0;exitX=0.279;exitY=1.02;exitDx=0;exitDy=0;exitPerimeter=0;" edge="1" parent="1" source="gJO6tKAzrJcMqkcw1Agy-16" target="gJO6tKAzrJcMqkcw1Agy-15">
          <mxGeometry width="50" height="50" relative="1" as="geometry">
            <mxPoint x="630" y="260" as="sourcePoint" />
            <mxPoint x="680" y="210" as="targetPoint" />
            <Array as="points">
              <mxPoint x="610" y="200" />
            </Array>
          </mxGeometry>
        </mxCell>
        <mxCell id="gJO6tKAzrJcMqkcw1Agy-23" value="" style="endArrow=none;html=1;rounded=0;entryX=0;entryY=0.5;entryDx=0;entryDy=0;exitX=0;exitY=0.5;exitDx=0;exitDy=0;" edge="1" parent="1" source="gJO6tKAzrJcMqkcw1Agy-18" target="gJO6tKAzrJcMqkcw1Agy-17">
          <mxGeometry width="50" height="50" relative="1" as="geometry">
            <mxPoint x="630" y="260" as="sourcePoint" />
            <mxPoint x="680" y="210" as="targetPoint" />
            <Array as="points">
              <mxPoint x="660" y="240" />
            </Array>
          </mxGeometry>
        </mxCell>
        <mxCell id="gJO6tKAzrJcMqkcw1Agy-25" value="" style="endArrow=none;html=1;rounded=0;exitX=0.5;exitY=0;exitDx=0;exitDy=0;entryX=1;entryY=0;entryDx=0;entryDy=0;" edge="1" parent="1" source="gJO6tKAzrJcMqkcw1Agy-19" target="gJO6tKAzrJcMqkcw1Agy-21">
          <mxGeometry width="50" height="50" relative="1" as="geometry">
            <mxPoint x="630" y="260" as="sourcePoint" />
            <mxPoint x="680" y="210" as="targetPoint" />
            <Array as="points">
              <mxPoint x="590" y="260" />
            </Array>
          </mxGeometry>
        </mxCell>
        <mxCell id="gJO6tKAzrJcMqkcw1Agy-26" value="" style="endArrow=none;html=1;rounded=0;entryX=1;entryY=1;entryDx=0;entryDy=0;" edge="1" parent="1" source="gJO6tKAzrJcMqkcw1Agy-20" target="gJO6tKAzrJcMqkcw1Agy-14">
          <mxGeometry width="50" height="50" relative="1" as="geometry">
            <mxPoint x="630" y="260" as="sourcePoint" />
            <mxPoint x="680" y="210" as="targetPoint" />
            <Array as="points">
              <mxPoint x="540" y="200" />
            </Array>
          </mxGeometry>
        </mxCell>
        <mxCell id="gJO6tKAzrJcMqkcw1Agy-27" value="has" style="rhombus;whiteSpace=wrap;html=1;" vertex="1" parent="1">
          <mxGeometry x="260" y="360" width="80" height="80" as="geometry" />
        </mxCell>
        <mxCell id="gJO6tKAzrJcMqkcw1Agy-28" value="" style="endArrow=none;html=1;rounded=0;entryX=0.75;entryY=1;entryDx=0;entryDy=0;exitX=0;exitY=0.75;exitDx=0;exitDy=0;" edge="1" parent="1" source="gJO6tKAzrJcMqkcw1Agy-2" target="gJO6tKAzrJcMqkcw1Agy-1">
          <mxGeometry width="50" height="50" relative="1" as="geometry">
            <mxPoint x="380" y="340" as="sourcePoint" />
            <mxPoint x="430" y="290" as="targetPoint" />
            <Array as="points">
              <mxPoint x="340" y="400" />
              <mxPoint x="260" y="400" />
            </Array>
          </mxGeometry>
        </mxCell>
        <mxCell id="gJO6tKAzrJcMqkcw1Agy-29" value="1" style="text;html=1;align=center;verticalAlign=middle;resizable=0;points=[];autosize=1;strokeColor=none;fillColor=none;" vertex="1" parent="1">
          <mxGeometry x="220" y="310" width="20" height="20" as="geometry" />
        </mxCell>
        <mxCell id="gJO6tKAzrJcMqkcw1Agy-30" value="n" style="text;html=1;align=center;verticalAlign=middle;resizable=0;points=[];autosize=1;strokeColor=none;fillColor=none;" vertex="1" parent="1">
          <mxGeometry x="400" y="350" width="20" height="20" as="geometry" />
        </mxCell>
      </root>
    </mxGraphModel>
  </diagram>
</mxfile>
